<?xml version="1.0" encoding="utf-8"?>
<!-- Generator: Adobe Illustrator 24.0.1, SVG Export Plug-In . SVG Version: 6.00 Build 0)  -->
<svg version="1.1" id="Layer_1" xmlns="http://www.w3.org/2000/svg" xmlns:xlink="http://www.w3.org/1999/xlink" x="0px" y="0px"
	 viewBox="0 0 32 32" style="enable-background:new 0 0 32 32;" xml:space="preserve">
<style type="text/css">
	.st0{fill:#1740DB;}
	.st1{opacity:0.74;fill:#13355B;enable-background:new    ;}
	.st2{fill:url(#SVGID_1_);}
	.st3{fill:#FFFFFF;}
</style>
<g>
	<rect x="0.1" class="st0" width="32" height="32"/>
	<ellipse class="st1" cx="16.1" cy="25.5" rx="10.7" ry="0.5"/>
	<g>
		
			<linearGradient id="SVGID_1_" gradientUnits="userSpaceOnUse" x1="12.1678" y1="5.5127" x2="13.0379" y2="31.669" gradientTransform="matrix(1 0 0 -1 0 34)">
			<stop  offset="0" style="stop-color:#FFFFFF"/>
			<stop  offset="0.1762" style="stop-color:#FCFCFC"/>
			<stop  offset="0.2864" style="stop-color:#F4F4F4"/>
			<stop  offset="0.3785" style="stop-color:#E5E5E5"/>
			<stop  offset="0.4607" style="stop-color:#D1D1D1"/>
			<stop  offset="0.5362" style="stop-color:#B6B6B6"/>
			<stop  offset="0.6068" style="stop-color:#959595"/>
			<stop  offset="0.6724" style="stop-color:#6F6F6F"/>
			<stop  offset="0.7291" style="stop-color:#474747"/>
		</linearGradient>
		<path class="st2" d="M18.1,6.5c-0.8-0.5-1.8-0.7-2.7-0.5c-1,0.2-1.9,0.8-2.4,1.8L6,19.1C5.5,20,5.3,21,5.5,22
			c0.2,1,0.8,1.9,1.6,2.4C7.5,24.8,7.9,25,8.4,25c0.2,0,0.4,0.1,0.6,0.1c0.3,0,0.6,0,0.8-0.1c1-0.2,1.8-0.9,2.3-1.7l7-11.4
			C20.3,10,19.8,7.6,18.1,6.5z"/>
		<path class="st3" d="M26.3,19.2L19.4,7.7C18.8,6.8,18,6.2,17,5.9c-0.5-0.1-1-0.1-1.5,0c0,0,0,0,0,0c0,0,0,0,0,0c0,0,0,0,0,0
			c-1,0.2-1.8,0.8-2.4,1.7L6.1,19c-0.5,0.9-0.8,1.9-0.6,2.9c0.2,1.1,0.7,2,1.6,2.6c0.1,0,0.2,0.1,0.2,0.1c-0.7-0.5-1.1-1.1-1.3-1.9
			c-0.2-0.9-0.1-1.9,0.4-2.7l4.5-7.3c0.7-1.1,2.3-1.3,3.1,0.2l6.2,10.4c0.5,0.9,1.4,1.5,2.3,1.7c0.3,0.1,0.6,0.1,0.9,0.1
			c0.2,0,0.4,0,0.6,0c0.5-0.1,0.9-0.3,1.3-0.5C26.9,23.4,27.4,21,26.3,19.2z"/>
	</g>
</g>
</svg>
