<?xml version="1.0" encoding="utf-8"?>
<!-- Generator: Adobe Illustrator 24.0.1, SVG Export Plug-In . SVG Version: 6.00 Build 0)  -->
<svg version="1.1" id="Layer_1" xmlns="http://www.w3.org/2000/svg" xmlns:xlink="http://www.w3.org/1999/xlink" x="0px" y="0px"
	 viewBox="0 0 200 159" style="enable-background:new 0 0 200 159;" xml:space="preserve">
<style type="text/css">
	.st0{fill:url(#SVGID_1_);}
	.st1{fill:#006699;}
	.st2{fill:#13355B;}
	.st3{fill:url(#SVGID_2_);}
	.st4{opacity:0.74;fill:#13355B;}
	.st5{fill:url(#SVGID_3_);}
	.st6{fill:#FFFFFF;}
</style>
<linearGradient id="SVGID_1_" gradientUnits="userSpaceOnUse" x1="87.8926" y1="79.8407" x2="87.8926" y2="27.2008">
	<stop  offset="0.1768" style="stop-color:#006699"/>
	<stop  offset="0.7348" style="stop-color:#13355B"/>
</linearGradient>
<path class="st0" d="M104.61,26.07c-2.4-1.64-5.29-2.21-8.13-1.6c-3.02,0.65-5.62,2.52-7.3,5.27l-21.1,34.45
	c-1.62,2.64-2.19,5.76-1.61,8.8c0.58,3.06,2.26,5.68,4.72,7.36c1.24,0.85,2.61,1.41,4.06,1.68c0.61,0.11,1.23,0.17,1.85,0.17
	c0.83,0,1.67-0.1,2.5-0.3c2.9-0.7,5.4-2.55,7.03-5.21l21.1-34.45C111.06,36.78,109.67,29.53,104.61,26.07z"/>
<path class="st1" d="M129.25,64.37l-9.88-16.36l-11.01-18.23c-1.67-2.76-4.25-4.65-7.27-5.31c-1.51-0.33-3.04-0.33-4.5-0.01
	c-0.04,0.01-0.07,0.01-0.11,0.02c-0.04,0.01-0.08,0.02-0.12,0.03c-0.01,0-0.01,0-0.02,0c-2.96,0.67-5.5,2.53-7.16,5.23L68.21,63.97
	c-1.58,2.58-2.29,5.65-1.81,8.64c0.51,3.23,2.22,5.99,4.79,7.74c0.23,0.15,0.46,0.3,0.69,0.43c-1.99-1.43-3.39-3.47-3.99-5.86
	c-0.68-2.72-0.23-5.56,1.26-8.01L82.6,44.84c2.1-3.44,6.95-3.86,9.36,0.48l18.67,31.42c1.61,2.67,4.1,4.53,6.99,5.25
	c0.85,0.21,1.71,0.32,2.57,0.32c0.61,0,1.22-0.05,1.82-0.16c1.44-0.26,2.79-0.81,4.03-1.64C131.12,77.09,132.56,69.85,129.25,64.37z
	"/>
<g>
	<g>
		<g>
			<path class="st1" d="M41.1,117.08h-9.74c-0.19,0-0.37,0.12-0.45,0.3l-1.73,4.2c-0.07,0.18-0.25,0.3-0.45,0.3H24.5
				c-0.35,0-0.58-0.36-0.44-0.68l9.54-21.4c0.08-0.17,0.25-0.29,0.44-0.29h4.49c0.19,0,0.36,0.11,0.44,0.28l9.57,21.4
				c0.14,0.32-0.09,0.68-0.44,0.68h-4.37c-0.19,0-0.37-0.12-0.45-0.3l-1.73-4.2C41.47,117.2,41.29,117.08,41.1,117.08z
				 M39.52,112.49l-2.83-6.82c-0.16-0.4-0.73-0.4-0.89,0l-2.82,6.82c-0.13,0.32,0.1,0.67,0.44,0.67h5.65
				C39.41,113.16,39.65,112.81,39.52,112.49z"/>
			<path class="st1" d="M58.19,100c0-0.27,0.22-0.48,0.48-0.48h9.68c2.43,0,4.57,0.46,6.44,1.39c1.86,0.93,3.31,2.23,4.34,3.91
				c1.03,1.68,1.55,3.64,1.55,5.88s-0.52,4.2-1.55,5.88c-1.03,1.68-2.48,2.99-4.34,3.91c-1.86,0.93-4.01,1.39-6.44,1.39h-9.68
				c-0.27,0-0.48-0.22-0.48-0.48V100z M68.09,117.63c2.24,0,4.02-0.62,5.35-1.87c1.33-1.25,2-2.93,2-5.06c0-2.13-0.67-3.82-2-5.06
				c-1.33-1.25-3.11-1.87-5.35-1.87h-4.25c-0.27,0-0.48,0.22-0.48,0.48v12.9c0,0.27,0.22,0.48,0.48,0.48H68.09z"/>
			<path class="st1" d="M92.08,99.52h4.21c0.27,0,0.48,0.22,0.48,0.48v21.4c0,0.27-0.22,0.48-0.48,0.48h-4.21
				c-0.27,0-0.48-0.22-0.48-0.48V100C91.6,99.73,91.82,99.52,92.08,99.52z"/>
			<path class="st1" d="M113.26,103.73h-6.19c-0.27,0-0.48-0.22-0.48-0.48V100c0-0.27,0.22-0.48,0.48-0.48h18.52
				c0.27,0,0.48,0.22,0.48,0.48v3.25c0,0.27-0.22,0.48-0.48,0.48h-6.19c-0.27,0-0.48,0.22-0.48,0.48v17.18
				c0,0.27-0.22,0.48-0.48,0.48h-4.21c-0.27,0-0.48-0.22-0.48-0.48v-17.18C113.74,103.95,113.52,103.73,113.26,103.73z"/>
			<path class="st1" d="M153.19,118.2v3.19c0,0.27-0.22,0.48-0.48,0.48h-16.35c-0.27,0-0.48-0.22-0.48-0.48V100
				c0-0.27,0.22-0.48,0.48-0.48h15.93c0.27,0,0.48,0.22,0.48,0.48v3.19c0,0.27-0.22,0.48-0.48,0.48H141.5
				c-0.27,0-0.48,0.22-0.48,0.48v3.89c0,0.27,0.22,0.48,0.48,0.48h9.42c0.27,0,0.48,0.22,0.48,0.48v3.06c0,0.27-0.22,0.48-0.48,0.48
				h-9.42c-0.27,0-0.48,0.22-0.48,0.48v4.21c0,0.27,0.22,0.48,0.48,0.48h11.21C152.97,117.72,153.19,117.94,153.19,118.2z"/>
			<path class="st1" d="M168.79,120.77c-1.84-0.99-3.29-2.36-4.34-4.12c-1.05-1.76-1.58-3.74-1.58-5.96c0-2.21,0.53-4.2,1.58-5.96
				c1.05-1.76,2.5-3.13,4.34-4.12c1.84-0.99,3.91-1.49,6.21-1.49c1.94,0,3.69,0.34,5.25,1.02c1.42,0.62,2.63,1.48,3.63,2.58
				c0.18,0.19,0.16,0.5-0.04,0.68l-2.62,2.42c-0.2,0.18-0.5,0.16-0.68-0.03c-1.45-1.51-3.22-2.26-5.3-2.26
				c-1.38,0-2.62,0.3-3.71,0.91c-1.09,0.61-1.93,1.45-2.54,2.54c-0.61,1.09-0.91,2.32-0.91,3.71c0,1.38,0.3,2.62,0.91,3.71
				c0.61,1.09,1.45,1.93,2.54,2.54c1.09,0.61,2.32,0.91,3.71,0.91c2.08,0,3.84-0.76,5.3-2.29c0.18-0.19,0.49-0.21,0.68-0.03
				l2.62,2.42c0.19,0.18,0.21,0.48,0.04,0.67c-1.01,1.13-2.23,2-3.66,2.62c-1.58,0.68-3.33,1.02-5.27,1.02
				C172.69,122.26,170.63,121.76,168.79,120.77z"/>
		</g>
	</g>
	<g>
		<g>
			<path class="st2" d="M30.45,136.78h-4.33l-0.9,2.04h-1.2l3.69-8.15h1.15l3.7,8.15h-1.22L30.45,136.78z M30.04,135.85l-1.76-3.99
				l-1.76,3.99H30.04z"/>
			<path class="st2" d="M41.01,130.17v8.64h-1.07v-0.98c-0.25,0.34-0.56,0.6-0.94,0.78c-0.38,0.18-0.8,0.27-1.26,0.27
				c-0.6,0-1.13-0.13-1.61-0.4c-0.47-0.26-0.84-0.63-1.11-1.11c-0.27-0.48-0.4-1.03-0.4-1.65c0-0.62,0.13-1.17,0.4-1.64
				c0.27-0.47,0.64-0.84,1.11-1.11c0.47-0.26,1.01-0.4,1.61-0.4c0.44,0,0.85,0.08,1.22,0.25c0.37,0.17,0.68,0.41,0.93,0.74v-3.4
				H41.01z M38.89,137.63c0.32-0.18,0.57-0.44,0.75-0.77c0.18-0.33,0.27-0.71,0.27-1.14c0-0.43-0.09-0.81-0.27-1.14
				c-0.18-0.33-0.43-0.58-0.75-0.76c-0.32-0.18-0.67-0.27-1.06-0.27c-0.4,0-0.75,0.09-1.07,0.27c-0.31,0.18-0.56,0.43-0.75,0.76
				c-0.18,0.33-0.27,0.71-0.27,1.14c0,0.43,0.09,0.81,0.27,1.14c0.18,0.33,0.43,0.59,0.75,0.77c0.31,0.18,0.67,0.27,1.07,0.27
				C38.22,137.91,38.57,137.82,38.89,137.63z"/>
			<path class="st2" d="M44.77,131.25c-0.14-0.14-0.22-0.31-0.22-0.51c0-0.2,0.07-0.37,0.22-0.52c0.14-0.14,0.32-0.22,0.54-0.22
				c0.22,0,0.4,0.07,0.54,0.2c0.14,0.14,0.22,0.3,0.22,0.51c0,0.21-0.07,0.39-0.22,0.53c-0.14,0.14-0.32,0.22-0.54,0.22
				C45.1,131.46,44.92,131.39,44.77,131.25z M44.76,132.64h1.12v6.17h-1.12V132.64z"/>
			<path class="st2" d="M53.11,138.45c-0.16,0.14-0.37,0.25-0.61,0.32c-0.24,0.07-0.49,0.11-0.75,0.11c-0.62,0-1.1-0.17-1.44-0.5
				c-0.34-0.33-0.51-0.81-0.51-1.43v-3.39h-1.05v-0.92h1.05v-1.35h1.12v1.35h1.77v0.92h-1.77v3.34c0,0.33,0.08,0.59,0.25,0.77
				c0.17,0.18,0.41,0.27,0.72,0.27c0.34,0,0.63-0.1,0.87-0.29L53.11,138.45z"/>
			<path class="st2" d="M56.1,131.25c-0.14-0.14-0.22-0.31-0.22-0.51c0-0.2,0.07-0.37,0.22-0.52c0.14-0.14,0.32-0.22,0.54-0.22
				c0.22,0,0.4,0.07,0.54,0.2c0.14,0.14,0.22,0.3,0.22,0.51c0,0.21-0.07,0.39-0.22,0.53c-0.14,0.14-0.32,0.22-0.54,0.22
				C56.43,131.46,56.25,131.39,56.1,131.25z M56.09,132.64h1.12v6.17h-1.12V132.64z"/>
			<path class="st2" d="M66.43,132.64l-2.7,6.17h-1.14l-2.7-6.17h1.16l2.12,4.95l2.17-4.95H66.43z"/>
			<path class="st2" d="M69.92,138.48c-0.49-0.27-0.87-0.65-1.15-1.12c-0.28-0.48-0.41-1.02-0.41-1.62c0-0.61,0.14-1.15,0.41-1.62
				c0.28-0.48,0.66-0.85,1.15-1.12c0.49-0.27,1.04-0.4,1.65-0.4c0.61,0,1.16,0.13,1.65,0.4c0.49,0.27,0.87,0.64,1.14,1.12
				c0.28,0.48,0.41,1.02,0.41,1.62c0,0.61-0.14,1.15-0.41,1.62c-0.28,0.48-0.66,0.85-1.14,1.12c-0.49,0.27-1.03,0.41-1.65,0.41
				C70.96,138.88,70.41,138.75,69.92,138.48z M72.64,137.63c0.31-0.18,0.56-0.44,0.74-0.77c0.18-0.33,0.27-0.71,0.27-1.14
				c0-0.43-0.09-0.81-0.27-1.14c-0.18-0.33-0.43-0.58-0.74-0.76c-0.31-0.18-0.67-0.27-1.07-0.27s-0.75,0.09-1.07,0.27
				c-0.31,0.18-0.56,0.43-0.75,0.76c-0.18,0.33-0.27,0.71-0.27,1.14c0,0.43,0.09,0.81,0.27,1.14c0.18,0.33,0.43,0.59,0.75,0.77
				c0.31,0.18,0.67,0.27,1.07,0.27S72.32,137.82,72.64,137.63z"/>
			<path class="st2" d="M78.27,138.68c-0.47-0.14-0.83-0.31-1.09-0.52l0.47-0.88c0.27,0.19,0.6,0.35,0.99,0.47
				c0.39,0.12,0.78,0.17,1.18,0.17c0.98,0,1.47-0.28,1.47-0.84c0-0.19-0.07-0.33-0.2-0.44c-0.13-0.11-0.3-0.19-0.49-0.24
				c-0.2-0.05-0.48-0.11-0.84-0.17c-0.5-0.08-0.9-0.17-1.22-0.27c-0.31-0.1-0.58-0.27-0.81-0.51c-0.23-0.24-0.34-0.58-0.34-1.01
				c0-0.56,0.23-1.01,0.7-1.34c0.47-0.34,1.09-0.51,1.87-0.51c0.41,0,0.82,0.05,1.23,0.15c0.41,0.1,0.75,0.24,1.01,0.41l-0.48,0.88
				c-0.5-0.33-1.1-0.49-1.78-0.49c-0.47,0-0.83,0.08-1.08,0.23c-0.25,0.16-0.37,0.36-0.37,0.62c0,0.2,0.07,0.36,0.21,0.48
				c0.14,0.12,0.31,0.2,0.52,0.26c0.21,0.05,0.49,0.12,0.87,0.19c0.5,0.09,0.9,0.18,1.21,0.27c0.31,0.1,0.57,0.26,0.79,0.49
				c0.22,0.23,0.33,0.56,0.33,0.98c0,0.56-0.24,1-0.72,1.33c-0.48,0.33-1.13,0.49-1.95,0.49C79.22,138.88,78.73,138.82,78.27,138.68
				z"/>
			<path class="st2" d="M96.3,138.94l-1.08-1.08c-0.72,0.7-1.63,1.05-2.72,1.05c-0.54,0-1.03-0.09-1.47-0.27
				c-0.43-0.18-0.77-0.43-1.02-0.75c-0.24-0.32-0.37-0.69-0.37-1.1c0-0.5,0.15-0.94,0.46-1.32c0.31-0.38,0.81-0.78,1.52-1.18
				c-0.36-0.36-0.61-0.68-0.76-0.97c-0.15-0.29-0.22-0.59-0.22-0.9c0-0.55,0.2-0.99,0.6-1.33c0.4-0.33,0.93-0.5,1.6-0.5
				c0.62,0,1.11,0.15,1.48,0.45c0.36,0.3,0.55,0.72,0.55,1.25c0,0.41-0.13,0.78-0.4,1.11c-0.27,0.33-0.71,0.67-1.33,1.02l2.01,2
				c0.23-0.44,0.4-0.94,0.5-1.48l0.9,0.29c-0.14,0.71-0.38,1.34-0.71,1.86l1.09,1.09L96.3,138.94z M94.56,137.21l-2.32-2.31
				c-0.56,0.31-0.95,0.6-1.17,0.87c-0.22,0.27-0.33,0.57-0.33,0.9c0,0.39,0.17,0.7,0.51,0.94c0.34,0.24,0.78,0.36,1.32,0.36
				C93.37,137.98,94.04,137.72,94.56,137.21z M91.99,131.68c-0.21,0.18-0.31,0.42-0.31,0.72c0,0.21,0.06,0.41,0.17,0.61
				c0.11,0.19,0.33,0.46,0.66,0.79c0.54-0.3,0.91-0.56,1.11-0.78c0.21-0.22,0.31-0.45,0.31-0.71c0-0.27-0.1-0.49-0.29-0.65
				c-0.19-0.16-0.46-0.24-0.8-0.24C92.48,131.41,92.19,131.5,91.99,131.68z"/>
			<path class="st2" d="M106.34,131.68h-2.79v-1.01h6.74v1.01h-2.79v7.14h-1.15V131.68z"/>
			<path class="st2" d="M117.94,136.1h-5.01c0.07,0.54,0.31,0.98,0.72,1.31c0.41,0.33,0.91,0.49,1.52,0.49
				c0.74,0,1.33-0.25,1.78-0.75l0.62,0.72c-0.28,0.33-0.63,0.57-1.04,0.75c-0.42,0.17-0.88,0.26-1.39,0.26
				c-0.65,0-1.23-0.13-1.73-0.4c-0.5-0.27-0.89-0.64-1.17-1.12c-0.28-0.48-0.41-1.02-0.41-1.63c0-0.6,0.13-1.14,0.4-1.62
				c0.27-0.48,0.64-0.86,1.11-1.12c0.47-0.27,1-0.4,1.59-0.4c0.59,0,1.12,0.13,1.58,0.4s0.82,0.64,1.08,1.12
				c0.26,0.48,0.39,1.03,0.39,1.65C117.96,135.85,117.95,135.96,117.94,136.1z M113.57,134.02c-0.36,0.33-0.57,0.75-0.63,1.28h3.96
				c-0.06-0.52-0.27-0.95-0.63-1.28c-0.36-0.33-0.81-0.49-1.34-0.49C114.37,133.53,113.93,133.69,113.57,134.02z"/>
			<path class="st2" d="M122.15,138.48c-0.49-0.27-0.88-0.65-1.16-1.12c-0.28-0.48-0.42-1.02-0.42-1.62c0-0.61,0.14-1.15,0.42-1.62
				c0.28-0.48,0.67-0.85,1.16-1.12c0.49-0.27,1.05-0.4,1.68-0.4c0.56,0,1.06,0.11,1.5,0.34c0.44,0.23,0.78,0.55,1.02,0.98
				l-0.85,0.55c-0.19-0.29-0.43-0.52-0.72-0.66c-0.29-0.15-0.61-0.22-0.95-0.22c-0.4,0-0.77,0.09-1.09,0.27
				c-0.32,0.18-0.57,0.43-0.76,0.76c-0.18,0.33-0.27,0.71-0.27,1.14c0,0.43,0.09,0.82,0.27,1.15c0.18,0.33,0.43,0.58,0.76,0.76
				c0.32,0.18,0.68,0.27,1.09,0.27c0.35,0,0.67-0.07,0.95-0.22c0.29-0.15,0.53-0.37,0.72-0.66l0.85,0.54
				c-0.24,0.43-0.58,0.76-1.02,0.98c-0.44,0.23-0.94,0.34-1.5,0.34C123.2,138.88,122.64,138.75,122.15,138.48z"/>
			<path class="st2" d="M134.58,133.27c0.46,0.45,0.69,1.12,0.69,2v3.55h-1.12v-3.42c0-0.6-0.14-1.05-0.43-1.35
				c-0.29-0.3-0.7-0.45-1.23-0.45c-0.61,0-1.08,0.18-1.43,0.53c-0.35,0.35-0.52,0.86-0.52,1.52v3.18h-1.12v-6.17h1.07v0.93
				c0.23-0.32,0.53-0.56,0.91-0.73c0.38-0.17,0.82-0.26,1.31-0.26C133.5,132.59,134.12,132.81,134.58,133.27z"/>
			<path class="st2" d="M140,138.48c-0.49-0.27-0.87-0.65-1.15-1.12c-0.28-0.48-0.41-1.02-0.41-1.62c0-0.61,0.14-1.15,0.41-1.62
				c0.28-0.48,0.66-0.85,1.15-1.12c0.49-0.27,1.04-0.4,1.65-0.4c0.61,0,1.16,0.13,1.65,0.4c0.49,0.27,0.87,0.64,1.14,1.12
				c0.28,0.48,0.41,1.02,0.41,1.62c0,0.61-0.14,1.15-0.41,1.62c-0.28,0.48-0.66,0.85-1.14,1.12c-0.49,0.27-1.03,0.41-1.65,0.41
				C141.04,138.88,140.49,138.75,140,138.48z M142.72,137.63c0.31-0.18,0.56-0.44,0.74-0.77c0.18-0.33,0.27-0.71,0.27-1.14
				c0-0.43-0.09-0.81-0.27-1.14c-0.18-0.33-0.42-0.58-0.74-0.76c-0.31-0.18-0.67-0.27-1.07-0.27c-0.4,0-0.75,0.09-1.07,0.27
				c-0.31,0.18-0.56,0.43-0.75,0.76c-0.18,0.33-0.27,0.71-0.27,1.14c0,0.43,0.09,0.81,0.27,1.14c0.18,0.33,0.43,0.59,0.75,0.77
				c0.31,0.18,0.67,0.27,1.07,0.27C142.05,137.91,142.41,137.82,142.72,137.63z"/>
			<path class="st2" d="M148.04,130.17h1.12v8.64h-1.12V130.17z"/>
			<path class="st2" d="M153.9,138.48c-0.49-0.27-0.87-0.65-1.15-1.12c-0.28-0.48-0.41-1.02-0.41-1.62c0-0.61,0.14-1.15,0.41-1.62
				c0.28-0.48,0.66-0.85,1.15-1.12c0.49-0.27,1.04-0.4,1.65-0.4c0.61,0,1.16,0.13,1.65,0.4c0.49,0.27,0.87,0.64,1.14,1.12
				c0.28,0.48,0.41,1.02,0.41,1.62c0,0.61-0.14,1.15-0.41,1.62c-0.28,0.48-0.66,0.85-1.14,1.12c-0.49,0.27-1.03,0.41-1.65,0.41
				C154.94,138.88,154.39,138.75,153.9,138.48z M156.62,137.63c0.31-0.18,0.56-0.44,0.74-0.77c0.18-0.33,0.27-0.71,0.27-1.14
				c0-0.43-0.09-0.81-0.27-1.14c-0.18-0.33-0.42-0.58-0.74-0.76c-0.31-0.18-0.67-0.27-1.07-0.27c-0.4,0-0.75,0.09-1.07,0.27
				c-0.31,0.18-0.56,0.43-0.75,0.76c-0.18,0.33-0.27,0.71-0.27,1.14c0,0.43,0.09,0.81,0.27,1.14c0.18,0.33,0.43,0.59,0.75,0.77
				c0.31,0.18,0.67,0.27,1.07,0.27C155.95,137.91,156.31,137.82,156.62,137.63z"/>
			<path class="st2" d="M167.84,132.64v5.33c0,1.08-0.27,1.88-0.8,2.39c-0.54,0.52-1.34,0.77-2.4,0.77c-0.58,0-1.14-0.08-1.67-0.24
				c-0.53-0.16-0.95-0.39-1.28-0.68l0.54-0.86c0.29,0.25,0.64,0.44,1.07,0.59c0.42,0.14,0.86,0.22,1.31,0.22
				c0.72,0,1.26-0.17,1.6-0.51c0.35-0.34,0.52-0.86,0.52-1.56v-0.49c-0.26,0.32-0.59,0.56-0.97,0.72c-0.38,0.16-0.8,0.24-1.25,0.24
				c-0.59,0-1.12-0.13-1.6-0.38c-0.48-0.25-0.85-0.61-1.12-1.06c-0.27-0.45-0.41-0.97-0.41-1.55c0-0.58,0.14-1.1,0.41-1.55
				c0.27-0.45,0.65-0.81,1.12-1.05c0.48-0.25,1.01-0.37,1.6-0.37c0.47,0,0.9,0.09,1.3,0.26c0.4,0.17,0.73,0.42,0.98,0.76v-0.95
				H167.84z M165.72,137.32c0.32-0.17,0.57-0.41,0.76-0.72c0.18-0.31,0.27-0.65,0.27-1.04c0-0.6-0.2-1.08-0.59-1.45
				c-0.4-0.37-0.9-0.55-1.53-0.55c-0.63,0-1.14,0.18-1.54,0.55c-0.4,0.37-0.59,0.85-0.59,1.45c0,0.39,0.09,0.74,0.27,1.04
				c0.18,0.31,0.43,0.55,0.76,0.72c0.32,0.17,0.69,0.26,1.1,0.26C165.03,137.58,165.4,137.5,165.72,137.32z"/>
			<path class="st2" d="M172.87,130.23h1.42l-1.96,1.51h-1.05L172.87,130.23z M171.6,132.64h1.12v6.17h-1.12V132.64z"/>
			<path class="st2" d="M180.69,133.21c0.45,0.42,0.68,1.04,0.68,1.87v3.73h-1.06V138c-0.19,0.29-0.45,0.51-0.8,0.66
				c-0.35,0.15-0.76,0.23-1.23,0.23c-0.69,0-1.24-0.17-1.66-0.5c-0.42-0.33-0.62-0.77-0.62-1.32c0-0.54,0.2-0.98,0.59-1.31
				c0.4-0.33,1.02-0.49,1.89-0.49h1.77v-0.22c0-0.48-0.14-0.85-0.42-1.11c-0.28-0.26-0.69-0.38-1.23-0.38
				c-0.37,0-0.72,0.06-1.07,0.18c-0.35,0.12-0.64,0.28-0.88,0.48l-0.47-0.84c0.32-0.26,0.7-0.45,1.14-0.59
				c0.44-0.14,0.91-0.2,1.41-0.2C179.58,132.59,180.24,132.79,180.69,133.21z M179.58,137.74c0.31-0.19,0.54-0.46,0.68-0.81v-0.86
				h-1.72c-0.95,0-1.42,0.32-1.42,0.95c0,0.31,0.12,0.55,0.36,0.73c0.24,0.18,0.57,0.27,1,0.27S179.27,137.93,179.58,137.74z"/>
		</g>
	</g>
</g>
</svg>
